<?xml version="1.0" encoding="UTF-8" standalone="no"?>
<svg
   xmlns:dc="http://purl.org/dc/elements/1.1/"
   xmlns:cc="http://creativecommons.org/ns#"
   xmlns:rdf="http://www.w3.org/1999/02/22-rdf-syntax-ns#"
   xmlns:svg="http://www.w3.org/2000/svg"
   xmlns="http://www.w3.org/2000/svg"
   xmlns:sodipodi="http://sodipodi.sourceforge.net/DTD/sodipodi-0.dtd"
   xmlns:inkscape="http://www.inkscape.org/namespaces/inkscape"
   width="141.15529mm"
   height="109.45164mm"
   viewBox="0 0 500.15653 387.82079"
   version="1.1"
   id="svg2"
   inkscape:version="0.91 r13725"
   sodipodi:docname="Knops-Logo-Crest.svg">
  <metadata
     id="metadata103">
    <rdf:RDF>
      <cc:Work
         rdf:about="">
        <dc:format>image/svg+xml</dc:format>
        <dc:type
           rdf:resource="http://purl.org/dc/dcmitype/StillImage" />
        <dc:title>Group 2</dc:title>
      </cc:Work>
    </rdf:RDF>
  </metadata>
  <sodipodi:namedview
     pagecolor="#ffffff"
     bordercolor="#666666"
     borderopacity="1"
     objecttolerance="10"
     gridtolerance="10"
     guidetolerance="10"
     inkscape:pageopacity="0"
     inkscape:pageshadow="2"
     inkscape:window-width="1440"
     inkscape:window-height="788"
     id="namedview101"
     showgrid="false"
     showguides="false"
     inkscape:zoom="0.70710678"
     inkscape:cx="257.01427"
     inkscape:cy="177.07921"
     inkscape:window-x="0"
     inkscape:window-y="1"
     inkscape:window-maximized="1"
     inkscape:current-layer="Group-2"
     inkscape:guide-bbox="true"
     units="mm"
     fit-margin-top="0"
     fit-margin-left="0"
     fit-margin-right="0"
     fit-margin-bottom="0">
    <inkscape:grid
       type="xygrid"
       id="grid3431"
       originx="-197.53372"
       originy="-161.2967" />
    <sodipodi:guide
       position="240.87248,557.12383"
       orientation="1,0"
       id="guide5013" />
    <sodipodi:guide
       position="-60.355005,165.38665"
       orientation="0,1"
       id="guide5017" />
    <sodipodi:guide
       position="-123.99462,245.99683"
       orientation="0,1"
       id="guide5063" />
    <sodipodi:guide
       position="-47.627085,147.00187"
       orientation="0,1"
       id="guide5065" />
    <sodipodi:guide
       position="-230.06064,98.918611"
       orientation="0,1"
       id="guide5069" />
    <sodipodi:guide
       position="211.8811,66.74525"
       orientation="0,1"
       id="guide5317" />
    <sodipodi:guide
       position="-56.533725,4.7033074"
       orientation="0,1"
       id="guide5339" />
    <sodipodi:guide
       position="141.46628,4.7033074"
       orientation="1,0"
       id="guide5379" />
    <sodipodi:guide
       position="339.46628,-81.296695"
       orientation="1,0"
       id="guide5381" />
    <sodipodi:guide
       position="191.46628,-130.2967"
       orientation="1,0"
       id="guide5387" />
    <sodipodi:guide
       position="291.46628,-120.2967"
       orientation="1,0"
       id="guide5389" />
  </sodipodi:namedview>
  <!-- Generator: Sketch 42 (36781) - http://www.bohemiancoding.com/sketch -->
  <title
     id="title4">Group 2</title>
  <desc
     id="desc6">Created with Sketch.</desc>
  <defs
     id="defs8" />
  <g
     id="Page-1"
     style="fill:#000000;fill-opacity:1;fill-rule:evenodd;stroke:none;stroke-width:1"
     transform="translate(-197.53372,125.11747)">
    <g
       id="Group-2"
       transform="translate(-1,-9)"
       style="fill:#000000;fill-opacity:1">
      <g
         id="Group-Copy-2"
         transform="matrix(0.70710678,-0.70710678,0.70710678,0.70710678,209.45581,-107.32233)"
         style="fill:#ffffff;fill-opacity:1">
        <path
           d="m 12.470138,149.38235 c -0.122526,-0.57932 -0.507812,-2.57531 -0.507812,-4.76786 0,-3.52855 0,-12.79774 -5.9716588,-12.79774 C 0.01900835,131.81675 0,126.332 0,126.332 l 0,5.48475 c 0,5.56876 0.01900835,10.96949 5.9906672,10.96949 2.0135887,0 3.3482137,0.62361 4.2328158,1.45027 0.309442,0.28917 0.741871,27.32786 0.741871,27.32786 l 1.356181,0 1.486613,0 c 0,0 0.562878,-27.03869 0.872321,-27.32786 0.884602,-0.82666 2.219227,-1.45027 4.232815,-1.45027 5.971659,0 5.990668,-5.40073 5.990668,-10.96949 l 0,-5.48475 c 0,0 -0.01901,5.48475 -5.990668,5.48475 -5.971658,0 -5.971658,9.26919 -5.971658,12.79774 0,2.19255 -0.357727,4.18854 -0.471488,4.76786 z"
           id="Combined-Shape"
           style="fill:#ffffff;fill-opacity:1"
           inkscape:connector-curvature="0" />
        <path
           d="m 0.04666541,113.82529 c 0,0 0.01900835,5.48475 5.99066719,5.48475 5.9716594,0 5.9716594,9.26919 5.9716594,12.79774 0,2.6071 0,3.6565 0,3.6565 0,0 0,-5.48475 -5.9716594,-5.48475 -5.97165884,0 -5.99066719,-5.40073 -5.99066719,-10.96949"
           id="Rectangle-Copy-11"
           style="fill:#ffffff;fill-opacity:1"
           inkscape:connector-curvature="0" />
        <path
           d="m 0.04666541,101.21038 c 0,0 0.01900835,5.48474 5.99066719,5.48474 5.9716594,0 5.9716594,9.26919 5.9716594,12.79774 0,2.6071 0,3.6565 0,3.6565 0,0 0,-5.48474 -5.9716594,-5.48474 -5.97165884,0 -5.99066719,-5.40074 -5.99066719,-10.9695"
           id="Rectangle-Copy-12"
           style="fill:#ffffff;fill-opacity:1"
           inkscape:connector-curvature="0" />
        <path
           d="m 0.04666541,88.229808 c 0,0 0.01900835,5.484747 5.99066719,5.484747 5.9716594,0 5.9716594,9.269185 5.9716594,12.797745 0,2.60709 0,3.6565 0,3.6565 0,0 0,-5.48475 -5.9716594,-5.48475 -5.97165884,0 -5.99066719,-5.400737 -5.99066719,-10.969495"
           id="Rectangle-Copy-13"
           style="fill:#ffffff;fill-opacity:1"
           inkscape:connector-curvature="0" />
        <path
           d="m 0.04666541,62.999972 c 0,0 0.01900835,5.484747 5.99066719,5.484747 5.9716594,0 5.9716594,9.269189 5.9716594,12.797743 0,2.607094 0,3.656498 0,3.656498 0,0 0,-5.484747 -5.9716594,-5.484747 -5.97165884,0 -5.99066719,-5.400736 -5.99066719,-10.969494"
           id="Rectangle-Copy-14"
           style="fill:#ffffff;fill-opacity:1"
           inkscape:connector-curvature="0" />
        <path
           d="m 0.04666541,75.61489 c 0,0 0.01900835,5.484747 5.99066719,5.484747 5.9716594,0 5.9716594,9.269189 5.9716594,12.797743 0,2.607094 0,3.656498 0,3.656498 0,0 0,-5.484747 -5.9716594,-5.484747 -5.97165884,0 -5.99066719,-5.400736 -5.99066719,-10.969494"
           id="Rectangle-Copy-15"
           style="fill:#ffffff;fill-opacity:1"
           inkscape:connector-curvature="0" />
        <path
           d="m 0.5104608,13.19481 c 0,1.307276 0.45589771,38.577124 0.47390154,40.343746 0.81284446,1.233591 2.29687866,2.362662 5.00630486,2.362662 5.9716588,0 5.9716588,9.269189 5.9716588,12.797743 0,2.607094 0,3.656498 0,3.656498 0,0 0,-5.484747 -5.9716588,-5.484747 C 0.01900835,66.870712 0,61.469977 0,55.901218 0,51.789819 0.5104608,11.887533 0.5104608,13.19481 Z"
           id="path19"
           style="fill:#ffffff;fill-opacity:1"
           inkscape:connector-curvature="0" />
        <path
           d="m 13.507694,13.19481 c 0,1.307276 0.455897,38.577124 0.473901,40.343746 0.812845,1.233591 2.296879,2.362662 5.006305,2.362662 5.971659,0 5.971659,9.269189 5.971659,12.797743 0,2.607094 0,3.656498 0,3.656498 0,0 0,-5.484747 -5.971659,-5.484747 -5.971659,0 -5.990667,-5.400735 -5.990667,-10.969494 0,-4.111399 0.510461,-44.013685 0.510461,-42.706408 z"
           id="Combined-Shape-Copy"
           transform="matrix(-1,0,0,1,37.956792,0)"
           style="fill:#ffffff;fill-opacity:1"
           inkscape:connector-curvature="0" />
        <path
           d="m 24.903952,113.64247 c 0,0 -0.01901,5.48475 -5.990668,5.48475 -5.971658,0 -5.971658,9.26918 -5.971658,12.79774 0,2.60709 0,3.6565 0,3.6565 0,0 0,-5.48475 5.971658,-5.48475 5.971659,0 5.990668,-5.40074 5.990668,-10.96949"
           id="Rectangle-Copy-18"
           style="fill:#ffffff;fill-opacity:1"
           inkscape:connector-curvature="0" />
        <path
           d="m 24.903952,101.02755 c 0,0 -0.01901,5.48475 -5.990668,5.48475 -5.971658,0 -5.971658,9.26919 -5.971658,12.79774 0,2.60709 0,3.6565 0,3.6565 0,0 0,-5.48475 5.971658,-5.48475 5.971659,0 5.990668,-5.40073 5.990668,-10.96949"
           id="Rectangle-Copy-19"
           style="fill:#ffffff;fill-opacity:1"
           inkscape:connector-curvature="0" />
        <path
           d="m 24.903952,88.046983 c 0,0 -0.01901,5.484747 -5.990668,5.484747 -5.971658,0 -5.971658,9.26919 -5.971658,12.79774 0,2.6071 0,3.6565 0,3.6565 0,0 0,-5.48475 5.971658,-5.48475 5.971659,0 5.990668,-5.400732 5.990668,-10.96949"
           id="Rectangle-Copy-20"
           style="fill:#ffffff;fill-opacity:1"
           inkscape:connector-curvature="0" />
        <path
           d="m 24.903952,62.817147 c 0,0 -0.01901,5.484747 -5.990668,5.484747 -5.971658,0 -5.971658,9.269189 -5.971658,12.797743 0,2.607094 0,3.656498 0,3.656498 0,0 0,-5.484747 5.971658,-5.484747 5.971659,0 5.990668,-5.400736 5.990668,-10.969494"
           id="Rectangle-Copy-21"
           style="fill:#ffffff;fill-opacity:1"
           inkscape:connector-curvature="0" />
        <path
           d="m 24.903952,75.432065 c 0,0 -0.01901,5.484747 -5.990668,5.484747 -5.971658,0 -5.971658,9.269189 -5.971658,12.797743 0,2.607094 0,3.656498 0,3.656498 0,0 0,-5.484747 5.971658,-5.484747 5.971659,0 5.990668,-5.400736 5.990668,-10.969494"
           id="Rectangle-Copy-23"
           style="fill:#ffffff;fill-opacity:1"
           inkscape:connector-curvature="0" />
        <path
           d="m 12.510178,0.07196984 c 0,0.57688601 -0.232052,37.79473516 -0.57802,38.62984716 -1.111905,2.683965 -3.4546335,6.506951 -3.4546335,10.21806 0,4.865816 4.0326535,9.66107 4.0110315,12.354899 0.02162,-2.693829 4.054276,-7.303801 4.054276,-12.354899 0,-3.857506 -2.355034,-7.611059 -3.468039,-10.252384 C 12.730407,37.850213 12.510178,0.64640895 12.510178,0.07196984 Z"
           id="path27"
           style="fill:#ffffff;fill-opacity:1"
           inkscape:connector-curvature="0" />
      </g>
      <g
         id="Group-Copy-4"
         transform="matrix(-0.70710678,-0.70710678,-0.70710678,0.70710678,669.74547,-106.8952)"
         style="fill:#ffffff;fill-opacity:1">
        <path
           d="m 12.470138,149.38235 c -0.122526,-0.57932 -0.507812,-2.57531 -0.507812,-4.76786 0,-3.52855 0,-12.79774 -5.9716588,-12.79774 C 0.01900835,131.81675 0,126.332 0,126.332 l 0,5.48475 c 0,5.56876 0.01900835,10.96949 5.9906672,10.96949 2.0135887,0 3.3482137,0.62361 4.2328158,1.45027 0.309442,0.28917 0.741871,27.32786 0.741871,27.32786 l 1.356181,0 1.486613,0 c 0,0 0.562878,-27.03869 0.872321,-27.32786 0.884602,-0.82666 2.219227,-1.45027 4.232815,-1.45027 5.971659,0 5.990668,-5.40073 5.990668,-10.96949 l 0,-5.48475 c 0,0 -0.01901,5.48475 -5.990668,5.48475 -5.971658,0 -5.971658,9.26919 -5.971658,12.79774 0,2.19255 -0.357727,4.18854 -0.471488,4.76786 z"
           id="path30"
           style="fill:#ffffff;fill-opacity:1"
           inkscape:connector-curvature="0" />
        <path
           d="m 0.04666541,113.82529 c 0,0 0.01900835,5.48475 5.99066719,5.48475 5.9716594,0 5.9716594,9.26919 5.9716594,12.79774 0,2.6071 0,3.6565 0,3.6565 0,0 0,-5.48475 -5.9716594,-5.48475 -5.97165884,0 -5.99066719,-5.40073 -5.99066719,-10.96949"
           id="path32"
           style="fill:#ffffff;fill-opacity:1"
           inkscape:connector-curvature="0" />
        <path
           d="m 0.04666541,101.21038 c 0,0 0.01900835,5.48474 5.99066719,5.48474 5.9716594,0 5.9716594,9.26919 5.9716594,12.79774 0,2.6071 0,3.6565 0,3.6565 0,0 0,-5.48474 -5.9716594,-5.48474 -5.97165884,0 -5.99066719,-5.40074 -5.99066719,-10.9695"
           id="path34"
           style="fill:#ffffff;fill-opacity:1"
           inkscape:connector-curvature="0" />
        <path
           d="m 0.04666541,88.229808 c 0,0 0.01900835,5.484747 5.99066719,5.484747 5.9716594,0 5.9716594,9.269185 5.9716594,12.797745 0,2.60709 0,3.6565 0,3.6565 0,0 0,-5.48475 -5.9716594,-5.48475 -5.97165884,0 -5.99066719,-5.400737 -5.99066719,-10.969495"
           id="path36"
           style="fill:#ffffff;fill-opacity:1"
           inkscape:connector-curvature="0" />
        <path
           d="m 0.04666541,62.999972 c 0,0 0.01900835,5.484747 5.99066719,5.484747 5.9716594,0 5.9716594,9.269189 5.9716594,12.797743 0,2.607094 0,3.656498 0,3.656498 0,0 0,-5.484747 -5.9716594,-5.484747 -5.97165884,0 -5.99066719,-5.400736 -5.99066719,-10.969494"
           id="path38"
           style="fill:#ffffff;fill-opacity:1"
           inkscape:connector-curvature="0" />
        <path
           d="m 0.04666541,75.61489 c 0,0 0.01900835,5.484747 5.99066719,5.484747 5.9716594,0 5.9716594,9.269189 5.9716594,12.797743 0,2.607094 0,3.656498 0,3.656498 0,0 0,-5.484747 -5.9716594,-5.484747 -5.97165884,0 -5.99066719,-5.400736 -5.99066719,-10.969494"
           id="path40"
           style="fill:#ffffff;fill-opacity:1"
           inkscape:connector-curvature="0" />
        <path
           d="m 0.5104608,13.19481 c 0,1.307276 0.45589771,38.577124 0.47390154,40.343746 0.81284446,1.233591 2.29687866,2.362662 5.00630486,2.362662 5.9716588,0 5.9716588,9.269189 5.9716588,12.797743 0,2.607094 0,3.656498 0,3.656498 0,0 0,-5.484747 -5.9716588,-5.484747 C 0.01900835,66.870712 0,61.469977 0,55.901218 0,51.789819 0.5104608,11.887533 0.5104608,13.19481 Z"
           id="path42"
           style="fill:#ffffff;fill-opacity:1"
           inkscape:connector-curvature="0" />
        <path
           d="m 13.507694,13.19481 c 0,1.307276 0.455897,38.577124 0.473901,40.343746 0.812845,1.233591 2.296879,2.362662 5.006305,2.362662 5.971659,0 5.971659,9.269189 5.971659,12.797743 0,2.607094 0,3.656498 0,3.656498 0,0 0,-5.484747 -5.971659,-5.484747 -5.971659,0 -5.990667,-5.400735 -5.990667,-10.969494 0,-4.111399 0.510461,-44.013685 0.510461,-42.706408 z"
           id="path44"
           transform="matrix(-1,0,0,1,37.956792,0)"
           style="fill:#ffffff;fill-opacity:1"
           inkscape:connector-curvature="0" />
        <path
           d="m 24.903952,113.64247 c 0,0 -0.01901,5.48475 -5.990668,5.48475 -5.971658,0 -5.971658,9.26918 -5.971658,12.79774 0,2.60709 0,3.6565 0,3.6565 0,0 0,-5.48475 5.971658,-5.48475 5.971659,0 5.990668,-5.40074 5.990668,-10.96949"
           id="path46"
           style="fill:#ffffff;fill-opacity:1"
           inkscape:connector-curvature="0" />
        <path
           d="m 24.903952,101.02755 c 0,0 -0.01901,5.48475 -5.990668,5.48475 -5.971658,0 -5.971658,9.26919 -5.971658,12.79774 0,2.60709 0,3.6565 0,3.6565 0,0 0,-5.48475 5.971658,-5.48475 5.971659,0 5.990668,-5.40073 5.990668,-10.96949"
           id="path48"
           style="fill:#ffffff;fill-opacity:1"
           inkscape:connector-curvature="0" />
        <path
           d="m 24.903952,88.046983 c 0,0 -0.01901,5.484747 -5.990668,5.484747 -5.971658,0 -5.971658,9.26919 -5.971658,12.79774 0,2.6071 0,3.6565 0,3.6565 0,0 0,-5.48475 5.971658,-5.48475 5.971659,0 5.990668,-5.400732 5.990668,-10.96949"
           id="path50"
           style="fill:#ffffff;fill-opacity:1"
           inkscape:connector-curvature="0" />
        <path
           d="m 24.903952,62.817147 c 0,0 -0.01901,5.484747 -5.990668,5.484747 -5.971658,0 -5.971658,9.269189 -5.971658,12.797743 0,2.607094 0,3.656498 0,3.656498 0,0 0,-5.484747 5.971658,-5.484747 5.971659,0 5.990668,-5.400736 5.990668,-10.969494"
           id="path52"
           style="fill:#ffffff;fill-opacity:1"
           inkscape:connector-curvature="0" />
        <path
           d="m 24.903952,75.432065 c 0,0 -0.01901,5.484747 -5.990668,5.484747 -5.971658,0 -5.971658,9.269189 -5.971658,12.797743 0,2.607094 0,3.656498 0,3.656498 0,0 0,-5.484747 5.971658,-5.484747 5.971659,0 5.990668,-5.400736 5.990668,-10.969494"
           id="path54"
           style="fill:#ffffff;fill-opacity:1"
           inkscape:connector-curvature="0" />
        <path
           d="m 12.510178,0.07196984 c 0,0.57688601 -0.232052,37.79473516 -0.57802,38.62984716 -1.111905,2.683965 -3.4546335,6.506951 -3.4546335,10.21806 0,4.865816 4.0326535,9.66107 4.0110315,12.354899 0.02162,-2.693829 4.054276,-7.303801 4.054276,-12.354899 0,-3.857506 -2.355034,-7.611059 -3.468039,-10.252384 C 12.730407,37.850213 12.510178,0.64640895 12.510178,0.07196984 Z"
           id="path56"
           style="fill:#ffffff;fill-opacity:1"
           inkscape:connector-curvature="0" />
      </g>
      <g
         id="Knops_logotype_reverse_simplified"
         transform="translate(199,23.98169)"
         style="fill:#ffffff;fill-opacity:1">
        <path
           d="m 494.03698,7.7248928 1.2084,0 c 0.0899,0 0.53236,0 0.72803,-0.1250353 0.1093,-0.058115 0.38341,-0.2579954 0.38341,-0.7185128 0,-0.8990215 -0.80648,-0.8990215 -1.11144,-0.8990215 l -1.2084,0 0,1.7425696 z m -0.74742,-2.3879983 1.96728,0 c 0.2935,0 0.88051,0 1.28772,0.2579954 0.4028,0.2615175 0.61874,0.6876942 0.61874,1.1332425 0,0.3874334 -0.14543,0.738765 -0.39222,0.9853135 -0.23798,0.2386237 -0.49182,0.3081856 -0.64871,0.3592564 0.52003,0.1408849 0.75448,0.3795086 0.82499,1.0716054 0.0899,0.652473 0.1375,1.1297203 0.35696,1.7425693 l -0.81793,0 c -0.12957,-0.370703 -0.20713,-1.0434282 -0.24679,-1.4652022 -0.10225,-0.81361 -0.28646,-1.0434285 -1.22867,-1.0434285 l -0.9669,0 0,2.5086307 -0.75447,0 0,-5.5499825 0,0 z"
           id="Fill-1"
           style="fill:#ffffff;fill-opacity:1"
           inkscape:connector-curvature="0" />
        <path
           d="m 490.80049,8.1114456 c 0,2.3025864 1.8668,4.1789974 4.19105,4.1789974 2.30044,0 4.15843,-1.876411 4.17077,-4.1789974 -0.0123,-2.3096311 -1.87033,-4.1781165 -4.17077,-4.1781165 -2.32425,0 -4.19105,1.8684854 -4.19105,4.1781165 z m -0.53237,0 c 0,-2.6028477 2.118,-4.7055542 4.72342,-4.7055542 2.58602,0 4.69873,2.1027065 4.69873,4.7055542 0,2.5958034 -2.11271,4.6985104 -4.69873,4.7029124 -2.60542,-0.0044 -4.72342,-2.107109 -4.72342,-4.7029124 l 0,0 z"
           id="Fill-2"
           style="fill:#ffffff;fill-opacity:1"
           inkscape:connector-curvature="0" />
        <path
           d="m 56.87399,2.8502768 c 4.619408,0 10.679903,0.4772474 20.565667,0.4772474 11.798398,0 16.255629,-0.3125883 20.719912,-0.4772474 0.645183,0.6375039 0.802072,5.5746376 -0.156889,6.2191859 -9.398351,1.5875963 -14.023048,2.7049893 -20.407016,9.7025643 -9.884882,10.678191 -21.838406,22.459687 -28.54144,29.628966 -0.148075,0.16642 -0.148075,0.48253 0,0.799521 8.936497,11.782377 28.064604,32.649185 39.863002,41.721289 2.553411,2.07541 4.940237,3.346016 7.172819,3.826785 4.307395,0.958017 7.180755,1.110349 10.043535,1.275889 0.63989,1.11211 0.31907,5.732253 -0.7959,6.369753 -5.10242,0.63487 -23.119082,0.16026 -27.742016,-1.59288 -2.075693,-0.63838 -4.14169,-2.06572 -5.420599,-3.183994 -7.489242,-6.695553 -27.099473,-28.986178 -35.864098,-39.975197 -0.162178,-0.161137 -2.075693,-1.911632 -3.670143,-3.026383 -0.319066,-0.795119 0,-2.868768 0.479481,-3.35394 7.331471,-3.011414 25.185957,-22.452644 32.99779,-32.162252 1.592687,-2.231264 2.231701,-3.826785 2.231701,-5.09739 0,-1.590238 -1.116732,-2.395923 -2.873359,-3.032547 -1.741643,-0.633101 -5.262829,-1.426459 -8.602447,-1.9001843 -0.796785,-0.9615392 -0.796785,-5.264691 0,-6.2191859 z M 30.889486,84.562613 c 0.636369,6.35919 1.111443,8.28403 5.259303,9.705206 2.231701,0.480769 5.41443,0.957136 10.047941,1.756658 0.791496,0.641906 0.629319,5.732253 -0.319066,6.369753 -5.581895,0 -15.631599,-0.48077 -24.234047,-0.48077 -8.140595,0 -18.4996692,0.48077 -21.04602894,0.48077 -0.79678408,-0.79159 -0.79678408,-5.573754 0,-6.369753 C 4.0932138,95.549871 8.2463627,94.907084 10.320293,94.436 c 3.984802,-1.280291 4.781586,-3.031666 4.943763,-9.084432 0.314659,-5.89427 0.314659,-20.22314 0.314659,-35.038944 0,-13.055624 0.163059,-23.566515 -0.15777,-33.128194 C 15.264056,13.678159 14.94499,11.774452 10.634952,10.657059 8.5654289,10.183334 5.379174,9.543188 1.3934907,9.0694627 c -0.95455433,-0.9615392 -0.95455433,-5.264691 0,-6.2191859 3.8261502,0 9.8813563,0.4772474 22.0014653,0.4772474 10.043534,0 16.417806,-0.4772474 21.36157,-0.4772474 0.633725,1.1182735 0.633725,4.9415363 0,6.2191859 -2.868071,0.4737253 -6.376036,1.1138713 -8.7611,1.7434503 -3.835845,1.118273 -4.791281,2.712914 -5.10594,7.325132 -0.166585,7.169278 -0.166585,16.726554 -0.166585,32.014322 0,13.063549 0,23.570037 0.166585,34.410246 l 0,0 z"
           id="Fill-4"
           style="fill:#ffffff;fill-opacity:1"
           inkscape:connector-curvature="0" />
        <path
           d="m 109.32072,2.8502768 c 4.94376,0 13.23067,0.4772474 23.44078,0.4772474 l 7.32883,0 c 0.64342,2.0718879 1.27979,3.350418 5.4206,8.6036618 15.46325,19.755579 45.59562,56.223625 54.04911,66.251985 0.31554,0.163778 0.63549,0 0.63549,-0.316991 0,-22.452644 0.16041,-46.027083 -0.47331,-58.289349 -0.32877,-4.937133 -1.27891,-7.009021 -6.38926,-8.283149 -3.18097,-0.801282 -7.00447,-1.5902375 -11.6327,-2.2242193 -0.7959,-0.8048048 -0.7959,-5.4170228 0,-6.2191859 3.99098,0 11.6327,0.4772474 23.43727,0.4772474 5.90272,0 16.42133,-0.4772474 18.65479,-0.4772474 0.95456,0.8021631 0.79502,5.2576467 0,6.2191859 -3.02848,0.6339818 -5.74319,1.2670833 -7.49717,1.9001843 -4.45988,1.442309 -5.41884,3.987042 -5.90008,8.607184 -0.95368,12.422523 -0.79679,23.250404 -1.2745,60.835843 0,7.491552 0.16482,16.888572 0.32082,22.308236 -1.75662,-0.32668 -10.99808,-0.16642 -12.59077,0.15057 -9.09515,-12.739512 -48.47691,-62.42696 -60.1052,-76.931056 -0.15689,-0.312588 -0.80119,-0.152332 -0.80119,0 -0.15777,16.886811 -0.31466,50.494894 0.31554,59.732538 0.32876,5.092988 2.07922,7.482747 6.70216,8.594857 2.38682,0.804805 5.8992,1.121795 10.35907,1.756658 0.80207,1.11211 0.48124,5.416143 -0.32083,6.369753 -4.45459,0 -11.79311,-0.48077 -21.51758,-0.48077 -11.48021,0 -18.17884,0.48077 -21.68063,0.48077 -0.79679,-0.48077 -0.6399,-5.573754 0,-6.369753 3.82262,-0.474606 7.17194,-0.951853 9.72447,-1.756658 3.65868,-1.270606 5.58189,-3.501869 5.90272,-8.283149 0.79062,-9.072985 1.11497,-32.322509 1.59445,-66.091728 0,-2.708512 -0.80383,-6.367115 -4.94376,-8.11849 -3.03025,-0.961539 -6.70039,-2.0710075 -12.75912,-2.7049893 -0.95897,-0.8048048 -0.79238,-5.4170228 0,-6.2191859"
           id="Fill-5"
           style="fill:#ffffff;fill-opacity:1"
           inkscape:connector-curvature="0" />
        <path
           d="m 297.6914,90.921803 c 9.71478,-7.478344 13.06849,-20.220499 13.06849,-34.71667 0,-17.834262 -5.89655,-33.763056 -18.17443,-42.046205 -5.58013,-3.666528 -12.11394,-5.7340136 -20.24924,-5.7340136 -5.0936,0 -9.56582,1.2785301 -13.38844,3.3495376 -11.31628,6.207739 -16.89905,20.224902 -16.89905,36.30955 0,17.361417 6.53821,34.723714 20.25189,43.162717 5.57572,3.343374 11.31627,4.777758 18.96504,4.777758 6.38221,0 12.44182,-1.756658 16.42574,-5.102674 z m -59.30929,-0.309066 c -9.88224,-10.679072 -14.0301,-23.730293 -14.0301,-38.865729 0,-12.109934 3.66221,-22.457046 10.83679,-31.532673 8.77344,-11.6256419 26.14933,-19.75205656 43.05631,-19.75205656 32.99603,0 49.73466,23.89143056 49.73466,49.69008856 0,14.810521 -3.34578,24.848567 -10.04794,33.932999 -10.52565,13.693127 -26.78305,20.697744 -42.72314,20.697744 -16.26091,0 -28.21444,-5.097388 -36.82658,-14.170373 l 0,0 z"
           id="Fill-6"
           style="fill:#ffffff;fill-opacity:1;stroke:none;stroke-opacity:1"
           inkscape:connector-curvature="0" />
        <path
           d="m 366.64496,58.278782 c -0.15601,-1.118274 0.3173,-1.754897 0.48565,-2.073649 1.59268,0.318752 4.30827,0.474606 5.90096,0.474606 4.6247,0 7.80919,-0.788955 11.15498,-2.378313 7.17193,-3.825023 10.04353,-10.837567 10.04353,-19.753817 0,-14.814043 -7.96608,-24.364275 -25.02554,-24.364275 -1.4358,0 -6.22532,0.153212 -7.17987,0.950092 -0.48125,0.316991 -1.11057,1.27853 -1.27979,2.227742 -0.31202,3.663006 -0.47332,8.443405 -0.47332,38.065327 0,24.852089 0.1613,31.21392 0.47332,36.317474 0.48124,3.823263 1.27979,5.41174 5.57572,6.692031 2.71559,0.636624 6.21738,1.113871 10.99897,1.588477 0.80648,0.951853 0.48124,5.578163 -0.3129,6.369753 -5.09889,0 -17.52925,-0.48077 -23.90352,-0.48077 -7.49629,0 -18.66361,0.48077 -22.16452,0.48077 -0.79502,-0.79159 -0.79502,-5.4179 -0.15689,-6.211258 3.6578,-0.476367 7.17194,-0.793358 9.23705,-1.434384 4.15139,-1.117393 4.30828,-4.299629 4.63263,-8.920653 0.14896,-5.726089 0.31378,-21.498148 0.31378,-34.241184 0,-24.204018 0,-28.030803 -0.16482,-33.284047 -0.31642,-5.734894 -1.42786,-7.009022 -6.53381,-7.966158 -2.06599,-0.4772476 -4.61323,-0.9580172 -7.96695,-1.2670833 -0.64078,-1.1138709 -0.31643,-5.4170228 0.48212,-6.2191859 2.066,0 11.96058,0.4772474 19.6023,0.4772474 10.84208,0 18.33925,-0.1602565 28.21532,-0.1602565 5.74407,0 15.47471,0.9615391 22.00499,6.2112611 5.57925,4.4642892 10.21276,11.6326862 10.21276,22.3082362 0,14.966375 -9.41862,24.204019 -17.54158,28.189299 -6.06138,3.183117 -12.60312,3.972073 -17.54071,3.972073 -2.8716,0 -4.77718,-0.151452 -6.85464,-0.788956 -0.95455,-0.641026 -2.07393,-3.666528 -2.23522,-4.780399"
           id="Fill-7"
           style="fill:#ffffff;fill-opacity:1"
           inkscape:connector-curvature="0" />
        <path
           d="m 435.64346,92.677581 c 3.97423,3.181356 9.7183,4.623665 15.45444,4.623665 6.85551,0 16.58615,-3.820621 16.58615,-15.932316 0,-9.874268 -6.06049,-14.172137 -20.88561,-22.457047 -15.30637,-8.43548 -24.87747,-15.928794 -24.87747,-30.896049 0,-17.679288 14.35181,-27.55355556 32.37376,-27.55355556 12.11835,0 18.96505,2.22774176 25.9801,3.02550226 -1.11056,5.2576468 -2.06512,15.6118033 -2.70678,23.4106603 -0.48124,1.117393 -5.42677,1.117393 -6.21826,0.163779 -0.96161,-8.446928 -2.2414,-13.536393 -5.90008,-16.249307 -3.82615,-2.7049895 -8.92063,-3.5018695 -13.38844,-3.5018695 -10.8509,0 -16.10139,8.4425255 -16.10139,15.2877685 0,9.087953 3.98304,12.906813 10.99457,17.362297 6.53468,4.135851 15.47471,7.962636 21.21085,11.300727 8.92151,5.262049 14.98201,11.95408 14.98201,23.422107 0,15.287768 -13.0729,30.099167 -36.82218,30.099167 -10.21277,0 -20.09677,-3.50275 -24.23581,-5.097388 -1.4358,-1.907229 -4.79393,-19.583876 -5.2549,-25.476385 0.31642,-1.440547 5.73614,-2.714675 6.67924,-2.073649 3.03201,9.552874 6.38485,16.406922 12.1298,20.541893"
           id="Fill-8"
           style="fill:#ffffff;fill-opacity:1"
           inkscape:connector-curvature="0" />
      </g>
      <rect
         id="Rectangle-3"
         transform="matrix(-0.70710678,-0.70710678,-0.70710678,0.70710678,0,0)"
         x="-387.60852"
         y="-94.116829"
         width="2.8"
         height="85"
         style="fill:#ffffff;fill-opacity:1" />
      <rect
         id="rect67"
         transform="matrix(0.70710678,-0.70710678,0.70710678,0.70710678,0,0)"
         x="233.48497"
         y="526.4364"
         width="2.7970653"
         height="85"
         style="fill:#ffffff;fill-opacity:1" />
      <text
         id="Brewing-Company"
         font-size="55"
         font-weight="normal"
         letter-spacing="0.289999992"
         style="font-style:normal;font-variant:normal;font-weight:normal;font-stretch:normal;font-size:55px;font-family:'Roboto Slab';-inkscape-font-specification:'Roboto Slab';letter-spacing:0.28999999;fill:#ffffff;fill-opacity:1"
         x="197"
         y="-125">
        <tspan
           x="197.02982"
           y="175.98169"
           id="tspan70"
           style="font-style:normal;font-variant:normal;font-weight:bold;font-stretch:normal;font-family:'Roboto Slab';-inkscape-font-specification:'Roboto Slab Bold';fill:#ffffff;fill-opacity:1">Brewing Company</tspan>
      </text>
      <g
         transform="translate(2,26)"
         style="font-weight:bold;font-size:20px;font-family:RobotoSlab-Bold, 'Roboto Slab';letter-spacing:0.89999998;fill:#ffffff;fill-opacity:1"
         id="est.-2010">
        <path
           d="m 404.96235,-30.570898 q -2.2164,0.556317 -3.89907,-0.531616 -1.68267,-1.087933 -2.23185,-3.275922 l -0.0951,-0.378873 q -0.57296,-2.282708 0.30644,-4.074131 0.88888,-1.7938 3.00347,-2.314494 2.07433,-0.520656 3.53424,0.441956 1.45991,0.962611 1.99483,3.09377 l 0.37801,1.506018 -6.1188,1.535816 -0.005,0.06159 q 0.33016,0.994465 1.09093,1.498242 0.77024,0.5014 1.80267,0.242261 0.91876,-0.23061 1.47979,-0.56273 0.55864,-0.341591 1.17865,-0.920091 l 1.17621,1.51711 q -0.50861,0.661294 -1.4365,1.256663 -0.91843,0.592992 -2.15924,0.904435 z m -2.38119,-8.443877 q -0.76722,0.192571 -1.06499,0.891562 -0.29778,0.698992 -0.16185,1.681797 l 0.0403,0.04023 3.39091,-0.851118 -0.0618,-0.246267 q -0.2211,-0.880879 -0.76862,-1.297222 -0.54042,-0.428193 -1.37394,-0.218979 z"
           style="fill:#ffffff;fill-opacity:1"
           id="path4256"
           inkscape:connector-curvature="0" />
        <path
           d="m 418.60629,-40.527719 -1.88778,0.316151 -0.51633,-1.250248 q -0.32766,-0.182765 -0.79651,-0.26267 -0.45923,-0.08152 -0.98896,0.0072 -0.74162,0.124202 -1.11859,0.533889 -0.37857,0.400057 -0.29469,0.900894 0.079,0.471943 0.54642,0.720423 0.46577,0.238848 1.74856,0.271556 2.00045,0.06104 3.06052,0.655838 1.05845,0.585162 1.27782,1.895045 0.2355,1.406198 -0.82806,2.505166 -1.05553,1.087724 -3.02999,1.418392 -1.20394,0.201627 -2.27331,0.02426 -1.06136,-0.188612 -1.95119,-0.712899 l -0.42086,-2.335613 1.96482,-0.329055 0.6127,1.29352 q 0.2859,0.169954 0.73706,0.203315 0.44955,0.02373 0.92149,-0.05531 0.85721,-0.143558 1.24864,-0.525964 0.40106,-0.38402 0.31235,-0.913752 -0.0774,-0.462311 -0.58656,-0.723602 -0.50914,-0.26129 -1.76626,-0.318101 -1.90252,-0.06754 -2.969,-0.64146 -1.05845,-0.585162 -1.27137,-1.856519 -0.21937,-1.309883 0.70128,-2.434427 0.91904,-1.134175 2.91276,-1.468069 1.21357,-0.20324 2.34714,-0.05643 1.1432,0.1452 1.8451,0.552436 l 0.4628,2.586032 z"
           style="fill:#ffffff;fill-opacity:1"
           id="path4258"
           inkscape:connector-curvature="0" />
        <path
           d="m 425.20747,-47.489003 0.24959,2.575828 1.84681,-0.178947 0.19308,1.992621 -1.84682,0.178947 0.51894,5.355776 q 0.0593,0.612367 0.33749,0.850322 0.27815,0.237956 0.70584,0.196515 0.2916,-0.02825 0.50356,-0.06842 0.22074,-0.05082 0.48725,-0.135514 l 0.44172,2.027397 q -0.46215,0.19195 -0.92212,0.305199 -0.45904,0.122968 -1.00336,0.17571 -1.46774,0.142216 -2.34296,-0.587323 -0.8655,-0.730481 -1.03502,-2.4801 l -0.51989,-5.365497 -1.5455,0.14975 -0.19307,-1.992621 1.5455,-0.14975 -0.24959,-2.575827 2.82855,-0.274071 z"
           style="fill:#ffffff;fill-opacity:1"
           id="path4260"
           inkscape:connector-curvature="0" />
        <path
           d="m 434.09897,-34.870463 -2.83886,0.12918 -0.11364,-2.497415 2.83886,-0.129181 0.11364,2.497416 z"
           style="fill:#ffffff;fill-opacity:1"
           id="path4262"
           inkscape:connector-curvature="0" />
        <path
           d="m 436.58116,-34.984768 0.0201,-1.585323 3.96239,-4.142091 q 0.8589,-0.960401 1.22421,-1.619894 0.36541,-0.667793 0.37266,-1.240501 0.01,-0.763611 -0.39925,-1.250269 -0.40051,-0.494853 -1.15582,-0.504411 -0.83831,-0.01061 -1.28547,0.556534 -0.43875,0.558946 -0.45072,1.50516 l -2.35723,-0.02983 -0.016,-0.05001 q -0.0208,-1.635648 1.10569,-2.75039 1.1349,-1.122937 3.02733,-1.098991 1.86753,0.02363 2.92595,1.008293 1.05843,0.984662 1.03795,2.603185 -0.0139,1.095616 -0.63154,2.017562 -0.60937,0.922051 -2.02269,2.398427 l -2.17946,2.321731 0.0161,0.04171 3.13744,0.0397 0.11473,-1.193956 1.84262,0.02332 -0.0386,3.054443 -8.25031,-0.104397 z"
           style="font-size:17px;fill:#ffffff;fill-opacity:1"
           id="path4264"
           inkscape:connector-curvature="0" />
        <path
           d="m 455.63187,-38.739687 q -0.20909,2.389796 -1.41742,3.533951 -1.19933,1.136608 -3.06817,0.973099 -1.88537,-0.164956 -2.87738,-1.49329 -0.99127,-1.336603 -0.78218,-3.7264 l 0.23224,-2.65441 q 0.20836,-2.381527 1.40842,-3.526405 1.20905,-1.152424 3.08615,-0.988191 1.86884,0.163509 2.8594,1.508382 0.99955,1.337326 0.79118,3.718853 l -0.23224,2.654411 z m -2.15239,-3.113022 q 0.12516,-1.430571 -0.24695,-2.129728 -0.3714,-0.707426 -1.18178,-0.778328 -0.81865,-0.07163 -1.29826,0.553012 -0.47961,0.624637 -0.60549,2.063476 l -0.27421,3.134024 q -0.12733,1.455378 0.23652,2.153811 0.37212,0.699157 1.19903,0.771506 0.81039,0.0709 1.28999,-0.553735 0.47961,-0.624637 0.60695,-2.080015 l 0.2742,-3.134023 z"
           style="font-size:17px;fill:#ffffff;fill-opacity:1"
           id="path4266"
           inkscape:connector-curvature="0" />
        <path
           d="m 457.58217,-35.1946 2.05595,0.06925 1.2637,-8.086424 -2.04211,-0.319129 0.21403,-1.369607 4.55428,-0.111635 -1.60334,10.259753 1.97906,0.561321 -0.22429,1.435217 -6.42157,-1.003525 0.22429,-1.435217 z"
           style="font-size:17px;fill:#ffffff;fill-opacity:1"
           id="path4268"
           inkscape:connector-curvature="0" />
        <path
           d="m 474.93155,-35.158458 q -0.52958,2.339743 -1.88121,3.310429 -1.3417,0.964422 -3.1714,0.550292 -1.84588,-0.417794 -2.64962,-1.867811 -0.8019,-1.458113 -0.27233,-3.797856 l 0.58821,-2.598815 q 0.52774,-2.331647 1.87128,-3.304166 1.35346,-0.978781 3.19126,-0.562819 1.82969,0.41413 2.62976,1.880339 0.81,1.459945 0.28226,3.791592 l -0.58821,2.598815 z m -1.71275,-3.374933 q 0.31701,-1.400607 0.0426,-2.143573 -0.27256,-0.751063 -1.06597,-0.930641 -0.80151,-0.181411 -1.361,0.372815 -0.55949,0.554225 -0.87833,1.962929 l -0.69449,3.068383 q -0.32251,1.424895 -0.0562,2.166029 0.2744,0.742966 1.084,0.926209 0.79341,0.179579 1.3529,-0.374647 0.55949,-0.554226 0.88199,-1.979121 l 0.6945,-3.068383 z"
           style="font-size:17px;fill:#ffffff;fill-opacity:1"
           id="path4270"
           inkscape:connector-curvature="0" />
      </g>
      <g
         id="Page-1-6"
         transform="matrix(0.22996519,0,0,0.22996519,421.28778,220.74395)"
         style="fill:#ffffff;fill-opacity:1;fill-rule:evenodd;stroke:none;stroke-width:1">
        <g
           id="Group"
           style="fill:#ffffff;fill-opacity:1">
          <g
             id="g5319"
             transform="translate(-8.6969684,0)"
             style="fill:#ffffff;fill-opacity:1">
            <path
               sodipodi:nodetypes="ccccccccc"
               style="fill:#ffffff;fill-opacity:1"
               inkscape:connector-curvature="0"
               d="m 60.372391,93.098351 c -4.91857,-2.479916 -4.854629,-3.369446 -11.103012,-9.933997 -7.345506,3.129729 -16.262396,10.458692 -27.478022,9.147234 -1.500564,4.465773 -3.26149,9.837252 -3.971747,13.251692 -2.133575,10.26623 -2.754184,24.12467 9.890365,29.28948 9.063842,3.63964 16.777992,-1.10503 24.366683,-5.54704 6.39232,-3.74347 10.842104,-6.40395 15.867142,-11.798 5.773121,-6.26115 10.550515,-11.42086 15.850379,-21.462704 -8.913988,4.714434 -15.016371,1.398245 -23.421788,-2.946665 z"
               id="Fill-426" />
            <path
               style="fill:#ffffff;fill-opacity:1"
               inkscape:connector-curvature="0"
               d="m 117.20689,26.057942 c -4.75513,-6.985299 -3.14643,-16.023949 0,-23.3113154 -15.91286,-4.5377474 -43.566679,-4.9935449 -53.23431,10.7881064 16.810834,0.01079 37.77535,5.53791 53.23431,12.523209 z"
               id="Fill-5-4" />
            <path
               style="fill:#ffffff;fill-opacity:1"
               inkscape:connector-curvature="0"
               d="M 21.814618,31.762208 C 34.936231,20.177512 46.732834,13.744366 61.261598,7.921485 42.108362,1.6877903 16.136842,16.445405 12.794516,18.655598 c 3.342326,2.282583 9.913363,3.400426 9.020102,13.10661 z"
               id="Fill-23" />
            <path
               sodipodi:nodetypes="cccccc"
               style="fill:#ffffff;fill-opacity:1"
               inkscape:connector-curvature="0"
               d="M 84.475943,18.932153 C 72.498224,16.502132 50.45293,14.488991 43.196253,26.672809 35.530512,39.67922 57.043189,47.075225 68.412505,54.313287 81.286744,47.075225 85.223339,45.541473 92.227854,42.136212 98.587953,37.903228 102.99762,32.647354 106.29255,25.846801 99.267016,21.899703 92.489108,20.55846 84.475943,18.932153 Z"
               id="Fill-66" />
            <path
               style="fill:#ffffff;fill-opacity:1"
               inkscape:connector-curvature="0"
               d="M 19.197209,55.877945 C 23.355089,51.14736 31.448729,44.907533 39.892107,42.863124 34.563217,36.836005 34.679988,32.872308 33.669937,28.787661 17.645009,32.45292 5.6518795,49.264836 1.9787121,63.849008 0.04826794,70.351539 -2.1245324,78.302374 4.2509766,82.728194 7.6285534,73.288601 12.388822,63.849008 19.197209,55.877945 Z"
               id="Fill-121" />
            <path
               sodipodi:nodetypes="cccccccc"
               style="fill:#ffffff;fill-opacity:1"
               inkscape:connector-curvature="0"
               d="m 159.10714,77.658186 c -4.16908,-8.318979 -6.29425,-17.530674 -11.16239,-25.621754 -7.25107,-11.794098 -20.63072,-23.248771 -35.22518,-23.248771 -3.46223,2.589172 -9.57917,10.920643 -13.562071,17.190032 3.982901,6.058739 10.483761,8.873086 14.430111,11.532355 6.57023,4.42582 15.59557,7.431995 22.43479,11.589143 12.18645,9.494882 17.13931,19.979554 33.60132,23.392641 -3.51767,-4.957135 -7.78482,-9.381607 -10.51658,-14.833646 z"
               id="Fill-125" />
            <path
               style="fill:#ffffff;fill-opacity:1"
               inkscape:connector-curvature="0"
               d="M 9.595887,88.091488 C 16.974442,86.400452 24.785877,87.761102 32.010333,85.664164 44.462959,82.048799 53.963882,70.245262 60.028391,59.772708 54.354734,56.584822 45.869465,50.739017 39.014848,51.204254 34.662242,51.681628 30.954052,55.009758 27.807624,57.654193 18.924499,65.301612 10.837087,76.42415 9.595887,88.091488"
               id="Fill-193" />
            <path
               style="fill:#ffffff;fill-opacity:1"
               inkscape:connector-curvature="0"
               d="m 69.370794,60.442383 c -3.777055,2.233402 -6.103967,7.732408 -14.994101,16.405072 2.461386,9.691766 21.332709,16.988176 28.36384,9.931405 C 91.692303,77.7627 94.230739,59.880065 95.895012,47.979435 84.834896,52.84346 74.243303,58.347687 69.370794,60.442383 Z"
               id="Fill-199" />
            <path
               sodipodi:nodetypes="cccscc"
               style="fill:#ffffff;fill-opacity:1"
               inkscape:connector-curvature="0"
               d="m 89.561612,90.786553 c 6.566032,2.854803 13.458478,6.801901 20.992528,4.963877 8.34238,-2.034906 11.886,-16.17227 13.7506,-25.768053 -4.3622,-1.630497 -7.97333,-3.971628 -12.32868,-6.797195 -4.81314,-3.122563 -7.06018,-4.066971 -11.26288,-6.886712 -1.690894,12.604554 -7.703946,22.351463 -11.151568,34.488083 z"
               id="Fill-240" />
            <path
               sodipodi:nodetypes="cscccscc"
               style="fill:#ffffff;fill-opacity:1"
               inkscape:connector-curvature="0"
               d="m 127.94516,70.369838 c 0.15928,0.540205 0.35065,1.095015 0.56993,1.66243 3.065,7.931196 10.3137,16.512494 14.15981,25.336823 4.60227,11.556809 6.23763,23.203119 5.44961,27.983599 1.41935,4.266 9.80659,6.73378 19.60118,14.07867 -1.40091,-6.5376 -10.30111,-13.02116 -11.46484,-25.49575 -0.48381,-5.1863 -0.51133,-9.96417 -1.67828,-14.833651 -2.55524,-10.654604 -9.44591,-17.223883 -18.94309,-24.512482"
               id="Fill-360" />
            <path
               sodipodi:nodetypes="ccccc"
               style="fill:#ffffff;fill-opacity:1"
               inkscape:connector-curvature="0"
               d="m 127.67817,80.926613 c -1.63766,10.514358 -9.42806,16.676318 -18.92478,21.963837 3.64234,8.12479 9.19132,16.66628 16.81083,21.84052 3.80485,2.56218 9.29359,5.12975 13.40104,1.61417 4.1915,-3.22699 3.34255,-9.40722 2.58186,-14.0151"
               id="Fill-396" />
            <path
               sodipodi:nodetypes="csccsccc"
               style="fill:#ffffff;fill-opacity:1"
               inkscape:connector-curvature="0"
               d="m 17.735571,140.21559 c -5.871184,-5.62505 -5.036263,-7.97778 -6.685163,-18.09998 -1.6489004,-10.1222 -0.132139,-19.08865 4.675488,-28.902622 L 8.557077,94.942587 C 0.57702289,110.66232 2.4100921,115.329 4.4684686,124.61831 c 1.0913034,4.92477 2.1609716,5.7183 2.2338185,10.79275 0.096662,6.7655 -2.9306888,13.48514 -3.5036581,20.2277 7.287497,-0.7228 8.665758,-11.37763 14.536942,-15.42317 z"
               id="Fill-488" />
            <path
               sodipodi:nodetypes="scccccccs"
               style="fill:#ffffff;fill-opacity:1"
               inkscape:connector-curvature="0"
               d="m 67.589384,143.3156 c 3.081294,4.29024 11.464395,7.74501 16.408181,10.19661 11.498547,-2.30285 15.094374,-10.94536 20.531285,-21.26688 1.74412,-3.31195 6.74924,-8.89609 8.31266,-12.67598 -5.5852,-7.0262 -3.683,-5.65965 -8.18762,-15.1901 -4.05171,0 -10.724532,-4.606648 -15.113189,-5.221751 -2.34378,4.486541 -5.871548,12.927121 -9.284657,16.673981 -5.1217,6.01167 -11.733576,12.28567 -18.329027,16.75869 0.815325,4.40425 3.016155,7.04098 5.662367,10.72543 z"
               id="Fill-566" />
            <path
               sodipodi:nodetypes="ccccc"
               style="fill:#ffffff;fill-opacity:1"
               inkscape:connector-curvature="0"
               d="m 95.95887,154.91543 c 9.32861,10.86632 23.48053,16.37634 32.22077,28.31878 9.15069,-13.26668 11.68046,-35.21072 11.68186,-50.7429 -10.21197,3.26365 -17.3012,-4.93445 -23.36636,-8.20502 -6.03345,11.08238 -12.97213,23.11097 -20.53627,30.62914 z"
               id="Fill-672" />
            <path
               sodipodi:nodetypes="ccsccc"
               style="fill:#ffffff;fill-opacity:1"
               inkscape:connector-curvature="0"
               d="M 81.49851,160.01302 C 67.787873,159.29966 61.698849,147.72197 56.165282,136.51178 l -3.73768,3.46658 c -1.86484,1.72958 5.488162,36.46631 8.68398,46.75553 3.502993,2.96017 2.056333,3.04852 7.36958,4.93631 4.582353,-11.37336 3.514916,-19.58865 13.017348,-31.65718 z"
               id="Fill-740" />
            <path
               sodipodi:nodetypes="cccc"
               style="fill:#ffffff;fill-opacity:1"
               inkscape:connector-curvature="0"
               d="m 57.956997,198.39681 c -8.495702,-15.35019 -10.393242,-36.40577 -11.751245,-57.65713 -8.405417,1.89196 -15.163373,4.04554 -23.815349,4.04554 1.882813,12.26877 22.395619,46.58942 35.566594,53.61159 z"
               id="Fill-744" />
            <path
               sodipodi:nodetypes="cscccccc"
               style="fill:#ffffff;fill-opacity:1"
               inkscape:connector-curvature="0"
               d="m 120.05192,184.96209 c -6.13174,-6.48327 -9.67203,-8.5686 -15.74888,-12.8358 -3.27279,-2.29817 -7.024426,-4.04654 -13.030333,-10.72092 -3.8343,5.00803 -4.63734,6.34311 -6.333833,10.2956 -1.944454,4.53235 -4.419331,8.50882 -4.396023,12.62644 3.099551,4.51814 11.484431,14.48676 14.828386,18.15202 9.293623,9.48566 10.466333,10.46112 19.002003,19.11653 1.74693,-12.47644 4.58458,-32.58833 5.67868,-36.63387 z"
               id="Fill-837" />
            <path
               sodipodi:nodetypes="ccccc"
               style="fill:#ffffff;fill-opacity:1"
               inkscape:connector-curvature="0"
               d="m 73.752194,201.85893 -12.978243,-5.28882 c 3.096096,9.44473 30.675631,19.25458 41.567649,21.73855 -6.664829,-5.80233 -18.857313,-18.88536 -25.286041,-25.43448 -0.787307,2.42732 -3.056806,6.45225 -3.303365,8.98475 z"
               id="Fill-953" />
          </g>
          <g
             transform="translate(213.07572,-65.227262)"
             id="g5341"
             style="fill:#ffffff;fill-opacity:1">
            <path
               id="path5343"
               d="m 60.372391,93.098351 c -4.91857,-2.479916 -4.854629,-3.369446 -11.103012,-9.933997 -7.345506,3.129729 -16.262396,10.458692 -27.478022,9.147234 -1.500564,4.465773 -3.26149,9.837252 -3.971747,13.251692 -2.133575,10.26623 -2.754184,24.12467 9.890365,29.28948 9.063842,3.63964 16.777992,-1.10503 24.366683,-5.54704 6.39232,-3.74347 10.842104,-6.40395 15.867142,-11.798 5.773121,-6.26115 10.550515,-11.42086 15.850379,-21.462704 -8.913988,4.714434 -15.016371,1.398245 -23.421788,-2.946665 z"
               inkscape:connector-curvature="0"
               style="fill:#ffffff;fill-opacity:1"
               sodipodi:nodetypes="ccccccccc" />
            <path
               id="path5345"
               d="m 117.20689,26.057942 c -4.75513,-6.985299 -3.14643,-16.023949 0,-23.3113154 -15.91286,-4.5377474 -43.566679,-4.9935449 -53.23431,10.7881064 16.810834,0.01079 37.77535,5.53791 53.23431,12.523209 z"
               inkscape:connector-curvature="0"
               style="fill:#ffffff;fill-opacity:1" />
            <path
               id="path5347"
               d="M 21.814618,31.762208 C 34.936231,20.177512 46.732834,13.744366 61.261598,7.921485 42.108362,1.6877903 16.136842,16.445405 12.794516,18.655598 c 3.342326,2.282583 9.913363,3.400426 9.020102,13.10661 z"
               inkscape:connector-curvature="0"
               style="fill:#ffffff;fill-opacity:1" />
            <path
               id="path5349"
               d="M 84.475943,18.932153 C 72.498224,16.502132 50.45293,14.488991 43.196253,26.672809 35.530512,39.67922 57.043189,47.075225 68.412505,54.313287 81.286744,47.075225 85.223339,45.541473 92.227854,42.136212 98.587953,37.903228 102.99762,32.647354 106.29255,25.846801 99.267016,21.899703 92.489108,20.55846 84.475943,18.932153 Z"
               inkscape:connector-curvature="0"
               style="fill:#ffffff;fill-opacity:1"
               sodipodi:nodetypes="cccccc" />
            <path
               id="path5351"
               d="M 19.197209,55.877945 C 23.355089,51.14736 31.448729,44.907533 39.892107,42.863124 34.563217,36.836005 34.679988,32.872308 33.669937,28.787661 17.645009,32.45292 5.6518795,49.264836 1.9787121,63.849008 0.04826794,70.351539 -2.1245324,78.302374 4.2509766,82.728194 7.6285534,73.288601 12.388822,63.849008 19.197209,55.877945 Z"
               inkscape:connector-curvature="0"
               style="fill:#ffffff;fill-opacity:1" />
            <path
               id="path5353"
               d="m 159.10714,77.658186 c -4.16908,-8.318979 -6.29425,-17.530674 -11.16239,-25.621754 -7.25107,-11.794098 -20.63072,-23.248771 -35.22518,-23.248771 -3.46223,2.589172 -9.57917,10.920643 -13.562071,17.190032 3.982901,6.058739 10.483761,8.873086 14.430111,11.532355 6.57023,4.42582 15.59557,7.431995 22.43479,11.589143 12.18645,9.494882 17.13931,19.979554 33.60132,23.392641 -3.51767,-4.957135 -7.78482,-9.381607 -10.51658,-14.833646 z"
               inkscape:connector-curvature="0"
               style="fill:#ffffff;fill-opacity:1"
               sodipodi:nodetypes="cccccccc" />
            <path
               id="path5355"
               d="M 9.595887,88.091488 C 16.974442,86.400452 24.785877,87.761102 32.010333,85.664164 44.462959,82.048799 53.963882,70.245262 60.028391,59.772708 54.354734,56.584822 45.869465,50.739017 39.014848,51.204254 34.662242,51.681628 30.954052,55.009758 27.807624,57.654193 18.924499,65.301612 10.837087,76.42415 9.595887,88.091488"
               inkscape:connector-curvature="0"
               style="fill:#ffffff;fill-opacity:1" />
            <path
               id="path5357"
               d="m 69.370794,60.442383 c -3.777055,2.233402 -6.103967,7.732408 -14.994101,16.405072 2.461386,9.691766 21.332709,16.988176 28.36384,9.931405 C 91.692303,77.7627 94.230739,59.880065 95.895012,47.979435 84.834896,52.84346 74.243303,58.347687 69.370794,60.442383 Z"
               inkscape:connector-curvature="0"
               style="fill:#ffffff;fill-opacity:1" />
            <path
               id="path5359"
               d="m 89.561612,90.786553 c 6.566032,2.854803 13.458478,6.801901 20.992528,4.963877 8.34238,-2.034906 11.886,-16.17227 13.7506,-25.768053 -4.3622,-1.630497 -7.97333,-3.971628 -12.32868,-6.797195 -4.81314,-3.122563 -7.06018,-4.066971 -11.26288,-6.886712 -1.690894,12.604554 -7.703946,22.351463 -11.151568,34.488083 z"
               inkscape:connector-curvature="0"
               style="fill:#ffffff;fill-opacity:1"
               sodipodi:nodetypes="cccscc" />
            <path
               id="path5361"
               d="m 127.94516,70.369838 c 0.15928,0.540205 0.35065,1.095015 0.56993,1.66243 3.065,7.931196 10.3137,16.512494 14.15981,25.336823 4.60227,11.556809 6.23763,23.203119 5.44961,27.983599 1.41935,4.266 9.80659,6.73378 19.60118,14.07867 -1.40091,-6.5376 -10.30111,-13.02116 -11.46484,-25.49575 -0.48381,-5.1863 -0.51133,-9.96417 -1.67828,-14.833651 -2.55524,-10.654604 -9.44591,-17.223883 -18.94309,-24.512482"
               inkscape:connector-curvature="0"
               style="fill:#ffffff;fill-opacity:1"
               sodipodi:nodetypes="cscccscc" />
            <path
               id="path5363"
               d="m 127.67817,80.926613 c -1.63766,10.514358 -9.42806,16.676318 -18.92478,21.963837 3.64234,8.12479 9.19132,16.66628 16.81083,21.84052 3.80485,2.56218 9.29359,5.12975 13.40104,1.61417 4.1915,-3.22699 3.34255,-9.40722 2.58186,-14.0151"
               inkscape:connector-curvature="0"
               style="fill:#ffffff;fill-opacity:1"
               sodipodi:nodetypes="ccccc" />
            <path
               id="path5365"
               d="m 17.735571,140.21559 c -5.871184,-5.62505 -5.036263,-7.97778 -6.685163,-18.09998 -1.6489004,-10.1222 -0.132139,-19.08865 4.675488,-28.902622 L 8.557077,94.942587 C 0.57702289,110.66232 2.4100921,115.329 4.4684686,124.61831 c 1.0913034,4.92477 2.1609716,5.7183 2.2338185,10.79275 0.096662,6.7655 -2.9306888,13.48514 -3.5036581,20.2277 7.287497,-0.7228 8.665758,-11.37763 14.536942,-15.42317 z"
               inkscape:connector-curvature="0"
               style="fill:#ffffff;fill-opacity:1"
               sodipodi:nodetypes="csccsccc" />
            <path
               id="path5367"
               d="m 67.589384,143.3156 c 3.081294,4.29024 11.464395,7.74501 16.408181,10.19661 11.498547,-2.30285 15.094374,-10.94536 20.531285,-21.26688 1.74412,-3.31195 6.74924,-8.89609 8.31266,-12.67598 -5.5852,-7.0262 -3.683,-5.65965 -8.18762,-15.1901 -4.05171,0 -10.724532,-4.606648 -15.113189,-5.221751 -2.34378,4.486541 -5.871548,12.927121 -9.284657,16.673981 -5.1217,6.01167 -11.733576,12.28567 -18.329027,16.75869 0.815325,4.40425 3.016155,7.04098 5.662367,10.72543 z"
               inkscape:connector-curvature="0"
               style="fill:#ffffff;fill-opacity:1"
               sodipodi:nodetypes="scccccccs" />
            <path
               id="path5369"
               d="m 95.95887,154.91543 c 9.32861,10.86632 23.48053,16.37634 32.22077,28.31878 9.15069,-13.26668 11.68046,-35.21072 11.68186,-50.7429 -10.21197,3.26365 -17.3012,-4.93445 -23.36636,-8.20502 -6.03345,11.08238 -12.97213,23.11097 -20.53627,30.62914 z"
               inkscape:connector-curvature="0"
               style="fill:#ffffff;fill-opacity:1"
               sodipodi:nodetypes="ccccc" />
            <path
               id="path5371"
               d="M 81.49851,160.01302 C 67.787873,159.29966 61.698849,147.72197 56.165282,136.51178 l -3.73768,3.46658 c -1.86484,1.72958 5.488162,36.46631 8.68398,46.75553 3.502993,2.96017 2.056333,3.04852 7.36958,4.93631 4.582353,-11.37336 3.514916,-19.58865 13.017348,-31.65718 z"
               inkscape:connector-curvature="0"
               style="fill:#ffffff;fill-opacity:1"
               sodipodi:nodetypes="ccsccc" />
            <path
               id="path5373"
               d="m 57.956997,198.39681 c -8.495702,-15.35019 -10.393242,-36.40577 -11.751245,-57.65713 -8.405417,1.89196 -15.163373,4.04554 -23.815349,4.04554 1.882813,12.26877 22.395619,46.58942 35.566594,53.61159 z"
               inkscape:connector-curvature="0"
               style="fill:#ffffff;fill-opacity:1"
               sodipodi:nodetypes="cccc" />
            <path
               id="path5375"
               d="m 120.05192,184.96209 c -6.13174,-6.48327 -9.67203,-8.5686 -15.74888,-12.8358 -3.27279,-2.29817 -7.024426,-4.04654 -13.030333,-10.72092 -3.8343,5.00803 -4.63734,6.34311 -6.333833,10.2956 -1.944454,4.53235 -4.419331,8.50882 -4.396023,12.62644 3.099551,4.51814 11.484431,14.48676 14.828386,18.15202 9.293623,9.48566 10.466333,10.46112 19.002003,19.11653 1.74693,-12.47644 4.58458,-32.58833 5.67868,-36.63387 z"
               inkscape:connector-curvature="0"
               style="fill:#ffffff;fill-opacity:1"
               sodipodi:nodetypes="cscccccc" />
            <path
               id="path5377"
               d="m 73.752194,201.85893 -12.978243,-5.28882 c 3.096096,9.44473 30.675631,19.25458 41.567649,21.73855 -6.664829,-5.80233 -18.857313,-18.88536 -25.286041,-25.43448 -0.787307,2.42732 -3.056806,6.45225 -3.303365,8.98475 z"
               inkscape:connector-curvature="0"
               style="fill:#ffffff;fill-opacity:1"
               sodipodi:nodetypes="ccccc" />
          </g>
          <g
             transform="translate(-223.94694,-65.227263)"
             id="g5391"
             style="fill:#ffffff;fill-opacity:1">
            <path
               id="path5393"
               d="m 60.372391,93.098351 c -4.91857,-2.479916 -4.854629,-3.369446 -11.103012,-9.933997 -7.345506,3.129729 -16.262396,10.458692 -27.478022,9.147234 -1.500564,4.465773 -3.26149,9.837252 -3.971747,13.251692 -2.133575,10.26623 -2.754184,24.12467 9.890365,29.28948 9.063842,3.63964 16.777992,-1.10503 24.366683,-5.54704 6.39232,-3.74347 10.842104,-6.40395 15.867142,-11.798 5.773121,-6.26115 10.550515,-11.42086 15.850379,-21.462704 -8.913988,4.714434 -15.016371,1.398245 -23.421788,-2.946665 z"
               inkscape:connector-curvature="0"
               style="fill:#ffffff;fill-opacity:1"
               sodipodi:nodetypes="ccccccccc" />
            <path
               id="path5395"
               d="m 117.20689,26.057942 c -4.75513,-6.985299 -3.14643,-16.023949 0,-23.3113154 -15.91286,-4.5377474 -43.566679,-4.9935449 -53.23431,10.7881064 16.810834,0.01079 37.77535,5.53791 53.23431,12.523209 z"
               inkscape:connector-curvature="0"
               style="fill:#ffffff;fill-opacity:1" />
            <path
               id="path5397"
               d="M 21.814618,31.762208 C 34.936231,20.177512 46.732834,13.744366 61.261598,7.921485 42.108362,1.6877903 16.136842,16.445405 12.794516,18.655598 c 3.342326,2.282583 9.913363,3.400426 9.020102,13.10661 z"
               inkscape:connector-curvature="0"
               style="fill:#ffffff;fill-opacity:1" />
            <path
               id="path5399"
               d="M 84.475943,18.932153 C 72.498224,16.502132 50.45293,14.488991 43.196253,26.672809 35.530512,39.67922 57.043189,47.075225 68.412505,54.313287 81.286744,47.075225 85.223339,45.541473 92.227854,42.136212 98.587953,37.903228 102.99762,32.647354 106.29255,25.846801 99.267016,21.899703 92.489108,20.55846 84.475943,18.932153 Z"
               inkscape:connector-curvature="0"
               style="fill:#ffffff;fill-opacity:1"
               sodipodi:nodetypes="cccccc" />
            <path
               id="path5401"
               d="M 19.197209,55.877945 C 23.355089,51.14736 31.448729,44.907533 39.892107,42.863124 34.563217,36.836005 34.679988,32.872308 33.669937,28.787661 17.645009,32.45292 5.6518795,49.264836 1.9787121,63.849008 0.04826794,70.351539 -2.1245324,78.302374 4.2509766,82.728194 7.6285534,73.288601 12.388822,63.849008 19.197209,55.877945 Z"
               inkscape:connector-curvature="0"
               style="fill:#ffffff;fill-opacity:1" />
            <path
               id="path5403"
               d="m 159.10714,77.658186 c -4.16908,-8.318979 -6.29425,-17.530674 -11.16239,-25.621754 -7.25107,-11.794098 -20.63072,-23.248771 -35.22518,-23.248771 -3.46223,2.589172 -9.57917,10.920643 -13.562071,17.190032 3.982901,6.058739 10.483761,8.873086 14.430111,11.532355 6.57023,4.42582 15.59557,7.431995 22.43479,11.589143 12.18645,9.494882 17.13931,19.979554 33.60132,23.392641 -3.51767,-4.957135 -7.78482,-9.381607 -10.51658,-14.833646 z"
               inkscape:connector-curvature="0"
               style="fill:#ffffff;fill-opacity:1"
               sodipodi:nodetypes="cccccccc" />
            <path
               id="path5405"
               d="M 9.595887,88.091488 C 16.974442,86.400452 24.785877,87.761102 32.010333,85.664164 44.462959,82.048799 53.963882,70.245262 60.028391,59.772708 54.354734,56.584822 45.869465,50.739017 39.014848,51.204254 34.662242,51.681628 30.954052,55.009758 27.807624,57.654193 18.924499,65.301612 10.837087,76.42415 9.595887,88.091488"
               inkscape:connector-curvature="0"
               style="fill:#ffffff;fill-opacity:1" />
            <path
               id="path5407"
               d="m 69.370794,60.442383 c -3.777055,2.233402 -6.103967,7.732408 -14.994101,16.405072 2.461386,9.691766 21.332709,16.988176 28.36384,9.931405 C 91.692303,77.7627 94.230739,59.880065 95.895012,47.979435 84.834896,52.84346 74.243303,58.347687 69.370794,60.442383 Z"
               inkscape:connector-curvature="0"
               style="fill:#ffffff;fill-opacity:1" />
            <path
               id="path5409"
               d="m 89.561612,90.786553 c 6.566032,2.854803 13.458478,6.801901 20.992528,4.963877 8.34238,-2.034906 11.886,-16.17227 13.7506,-25.768053 -4.3622,-1.630497 -7.97333,-3.971628 -12.32868,-6.797195 -4.81314,-3.122563 -7.06018,-4.066971 -11.26288,-6.886712 -1.690894,12.604554 -7.703946,22.351463 -11.151568,34.488083 z"
               inkscape:connector-curvature="0"
               style="fill:#ffffff;fill-opacity:1"
               sodipodi:nodetypes="cccscc" />
            <path
               id="path5411"
               d="m 127.94516,70.369838 c 0.15928,0.540205 0.35065,1.095015 0.56993,1.66243 3.065,7.931196 10.3137,16.512494 14.15981,25.336823 4.60227,11.556809 6.23763,23.203119 5.44961,27.983599 1.41935,4.266 9.80659,6.73378 19.60118,14.07867 -1.40091,-6.5376 -10.30111,-13.02116 -11.46484,-25.49575 -0.48381,-5.1863 -0.51133,-9.96417 -1.67828,-14.833651 -2.55524,-10.654604 -9.44591,-17.223883 -18.94309,-24.512482"
               inkscape:connector-curvature="0"
               style="fill:#ffffff;fill-opacity:1"
               sodipodi:nodetypes="cscccscc" />
            <path
               id="path5413"
               d="m 127.67817,80.926613 c -1.63766,10.514358 -9.42806,16.676318 -18.92478,21.963837 3.64234,8.12479 9.19132,16.66628 16.81083,21.84052 3.80485,2.56218 9.29359,5.12975 13.40104,1.61417 4.1915,-3.22699 3.34255,-9.40722 2.58186,-14.0151"
               inkscape:connector-curvature="0"
               style="fill:#ffffff;fill-opacity:1"
               sodipodi:nodetypes="ccccc" />
            <path
               id="path5415"
               d="m 17.735571,140.21559 c -5.871184,-5.62505 -5.036263,-7.97778 -6.685163,-18.09998 -1.6489004,-10.1222 -0.132139,-19.08865 4.675488,-28.902622 L 8.557077,94.942587 C 0.57702289,110.66232 2.4100921,115.329 4.4684686,124.61831 c 1.0913034,4.92477 2.1609716,5.7183 2.2338185,10.79275 0.096662,6.7655 -2.9306888,13.48514 -3.5036581,20.2277 7.287497,-0.7228 8.665758,-11.37763 14.536942,-15.42317 z"
               inkscape:connector-curvature="0"
               style="fill:#ffffff;fill-opacity:1"
               sodipodi:nodetypes="csccsccc" />
            <path
               id="path5417"
               d="m 67.589384,143.3156 c 3.081294,4.29024 11.464395,7.74501 16.408181,10.19661 11.498547,-2.30285 15.094374,-10.94536 20.531285,-21.26688 1.74412,-3.31195 6.74924,-8.89609 8.31266,-12.67598 -5.5852,-7.0262 -3.683,-5.65965 -8.18762,-15.1901 -4.05171,0 -10.724532,-4.606648 -15.113189,-5.221751 -2.34378,4.486541 -5.871548,12.927121 -9.284657,16.673981 -5.1217,6.01167 -11.733576,12.28567 -18.329027,16.75869 0.815325,4.40425 3.016155,7.04098 5.662367,10.72543 z"
               inkscape:connector-curvature="0"
               style="fill:#ffffff;fill-opacity:1"
               sodipodi:nodetypes="scccccccs" />
            <path
               id="path5419"
               d="m 95.95887,154.91543 c 9.32861,10.86632 23.48053,16.37634 32.22077,28.31878 9.15069,-13.26668 11.68046,-35.21072 11.68186,-50.7429 -10.21197,3.26365 -17.3012,-4.93445 -23.36636,-8.20502 -6.03345,11.08238 -12.97213,23.11097 -20.53627,30.62914 z"
               inkscape:connector-curvature="0"
               style="fill:#ffffff;fill-opacity:1"
               sodipodi:nodetypes="ccccc" />
            <path
               id="path5421"
               d="M 81.49851,160.01302 C 67.787873,159.29966 61.698849,147.72197 56.165282,136.51178 l -3.73768,3.46658 c -1.86484,1.72958 5.488162,36.46631 8.68398,46.75553 3.502993,2.96017 2.056333,3.04852 7.36958,4.93631 4.582353,-11.37336 3.514916,-19.58865 13.017348,-31.65718 z"
               inkscape:connector-curvature="0"
               style="fill:#ffffff;fill-opacity:1"
               sodipodi:nodetypes="ccsccc" />
            <path
               id="path5423"
               d="m 57.956997,198.39681 c -8.495702,-15.35019 -10.393242,-36.40577 -11.751245,-57.65713 -8.405417,1.89196 -15.163373,4.04554 -23.815349,4.04554 1.882813,12.26877 22.395619,46.58942 35.566594,53.61159 z"
               inkscape:connector-curvature="0"
               style="fill:#ffffff;fill-opacity:1"
               sodipodi:nodetypes="cccc" />
            <path
               id="path5425"
               d="m 120.05192,184.96209 c -6.13174,-6.48327 -9.67203,-8.5686 -15.74888,-12.8358 -3.27279,-2.29817 -7.024426,-4.04654 -13.030333,-10.72092 -3.8343,5.00803 -4.63734,6.34311 -6.333833,10.2956 -1.944454,4.53235 -4.419331,8.50882 -4.396023,12.62644 3.099551,4.51814 11.484431,14.48676 14.828386,18.15202 9.293623,9.48566 10.466333,10.46112 19.002003,19.11653 1.74693,-12.47644 4.58458,-32.58833 5.67868,-36.63387 z"
               inkscape:connector-curvature="0"
               style="fill:#ffffff;fill-opacity:1"
               sodipodi:nodetypes="cscccccc" />
            <path
               id="path5427"
               d="m 73.752194,201.85893 -12.978243,-5.28882 c 3.096096,9.44473 30.675631,19.25458 41.567649,21.73855 -6.664829,-5.80233 -18.857313,-18.88536 -25.286041,-25.43448 -0.787307,2.42732 -3.056806,6.45225 -3.303365,8.98475 z"
               inkscape:connector-curvature="0"
               style="fill:#ffffff;fill-opacity:1"
               sodipodi:nodetypes="ccccc" />
          </g>
        </g>
      </g>
    </g>
  </g>
</svg>
