<?xml version="1.0" encoding="UTF-8"?>
<svg width="484px" height="109px" viewBox="0 0 484 109" version="1.1" xmlns="http://www.w3.org/2000/svg" xmlns:xlink="http://www.w3.org/1999/xlink">
    <!-- Generator: Sketch 42 (36781) - http://www.bohemiancoding.com/sketch -->
    <title>Knops_logotype_reverse_simplified</title>
    <desc>Created with Sketch.</desc>
    <defs>
        <path d="M470.437868,7.39158742 L471.588543,7.39158742 C471.674151,7.39158742 472.095477,7.39158742 472.281801,7.271947 C472.385874,7.21633948 472.646895,7.02508331 472.646895,6.58443584 C472.646895,5.72420437 471.878939,5.72420437 471.588543,5.72420437 L470.437868,5.72420437 L470.437868,7.39158742 Z M469.726146,5.10662388 L471.599454,5.10662388 C471.878939,5.10662388 472.43791,5.10662388 472.825665,5.35348757 C473.209223,5.60372141 473.41485,6.01150988 473.41485,6.4378342 C473.41485,6.808551 473.276367,7.14472373 473.041364,7.38063442 C472.814754,7.60896227 472.573037,7.67552278 472.423642,7.72439 C472.918827,7.8591961 473.142079,8.08752395 473.209223,8.74975896 C473.294831,9.37407974 473.340153,9.83073544 473.549138,10.417142 L472.770271,10.417142 C472.646895,10.0624334 472.573037,9.41873427 472.535268,9.01515848 C472.43791,8.23665321 472.262497,8.01675074 471.36529,8.01675074 L470.444583,8.01675074 L470.444583,10.417142 L469.726146,10.417142 L469.726146,5.10662388 L469.726146,5.10662388 Z" id="path-1"></path>
        <filter x="-50%" y="-50%" width="200%" height="200%" filterUnits="objectBoundingBox" id="filter-2">
            <feOffset dx="0" dy="2" in="SourceAlpha" result="shadowOffsetOuter1"></feOffset>
            <feGaussianBlur stdDeviation="2" in="shadowOffsetOuter1" result="shadowBlurOuter1"></feGaussianBlur>
            <feColorMatrix values="0 0 0 0 0   0 0 0 0 0   0 0 0 0 0  0 0 0 0.5 0" type="matrix" in="shadowBlurOuter1"></feColorMatrix>
        </filter>
        <path d="M467.355974,7.76146168 C467.355974,9.96469901 469.133603,11.7601479 471.346826,11.7601479 C473.537388,11.7601479 475.306623,9.96469901 475.318373,7.76146168 C475.306623,5.55148404 473.537388,3.76361803 471.346826,3.76361803 C469.133603,3.76361803 467.355974,5.55148404 467.355974,7.76146168 Z M466.84904,7.76146168 C466.84904,5.27091883 468.865867,3.25893766 471.346826,3.25893766 C473.809319,3.25893766 475.821111,5.27091883 475.821111,7.76146168 C475.821111,10.2452642 473.809319,12.2572454 471.346826,12.2614581 C468.865867,12.2572454 466.84904,10.2452642 466.84904,7.76146168 L466.84904,7.76146168 Z" id="path-3"></path>
        <filter x="-50%" y="-50%" width="200%" height="200%" filterUnits="objectBoundingBox" id="filter-4">
            <feOffset dx="0" dy="2" in="SourceAlpha" result="shadowOffsetOuter1"></feOffset>
            <feGaussianBlur stdDeviation="2" in="shadowOffsetOuter1" result="shadowBlurOuter1"></feGaussianBlur>
            <feColorMatrix values="0 0 0 0 0   0 0 0 0 0   0 0 0 0 0  0 0 0 0.5 0" type="matrix" in="shadowBlurOuter1"></feColorMatrix>
        </filter>
        <path d="M54.1572381,2.72729608 C58.5559873,2.72729608 64.326985,3.18395177 73.7405263,3.18395177 C84.9753395,3.18395177 89.2196582,2.88485071 93.4706913,2.72729608 C94.0850558,3.33729371 94.2344504,8.06140527 93.3212966,8.67814321 C84.3718858,10.1972395 79.9681009,11.2664205 73.8890817,17.9620714 C64.4763796,28.1795318 53.0938504,39.4526926 46.7110061,46.3126385 C46.5700044,46.4718782 46.5700044,46.7743494 46.7110061,47.0776631 C55.2206259,58.3516664 73.4350227,78.3181361 84.6698358,86.998807 C87.1012757,88.9846694 89.3740886,90.200452 91.5000248,90.6604779 C95.6016632,91.5771594 98.3377674,91.7229185 101.0638,91.8813157 C101.673129,92.9454414 101.367625,97.3662392 100.305916,97.9762369 C95.4472328,98.5837069 78.291188,98.1295788 73.8890817,96.4520853 C71.9125401,95.8412451 69.9452309,94.4754907 68.7274127,93.4054673 C61.5959165,86.998807 42.922425,65.669953 34.5764678,55.1550766 C34.4220374,55.0008921 32.5999263,53.3259262 31.0816402,52.2592729 C30.7778152,51.4984609 31.0816402,49.5142835 31.5382171,49.050045 C38.5194793,46.1685644 55.5210938,27.566164 62.9597722,18.2754956 C64.4763796,16.1405038 65.0848691,14.6138247 65.0848691,13.3980421 C65.0848691,11.8764181 64.0214813,11.1054957 62.3487648,10.4963406 C60.6903164,9.89055565 57.3373298,9.13142875 54.1572381,8.67814321 C53.3985148,7.75809152 53.3985148,3.64060746 54.1572381,2.72729608 Z M29.4139595,80.9139963 C30.0199311,86.998807 30.4723115,88.8405954 34.4220374,90.200452 C36.5471343,90.6604779 39.5778313,91.116291 43.9900092,91.8813157 C44.7436968,92.495526 44.5892664,97.3662392 43.6861841,97.9762369 C38.370924,97.9762369 28.8012736,97.516211 20.6097469,97.516211 C12.8580112,97.516211 2.99376801,97.9762369 0.569042532,97.9762369 C-0.189680844,97.218795 -0.189680844,92.6429702 0.569042532,91.8813157 C3.89768955,91.4271876 7.85245122,90.8121347 9.82731417,90.3613768 C13.6217703,89.1363263 14.3804937,87.4605179 14.5349241,81.6689105 C14.8345527,76.0289599 14.8345527,62.3183362 14.8345527,48.1417888 C14.8345527,35.6494753 14.9898224,25.5920971 14.6843188,16.442975 C14.5349241,13.087988 14.2310991,11.2664205 10.1269428,10.1972395 C8.15627629,9.743954 5.12222208,9.13142875 1.32692661,8.67814321 C0.417969293,7.75809152 0.417969293,3.64060746 1.32692661,2.72729608 C4.97030955,2.72729608 10.7362715,3.18395177 22.2774276,3.18395177 C31.8412029,3.18395177 37.9109899,2.72729608 42.6185999,2.72729608 C43.2220535,3.79731956 43.2220535,7.45562032 42.6185999,8.67814321 C39.8875315,9.13142875 36.5471343,9.743954 34.2759999,10.3463688 C30.6233847,11.4163923 29.7135881,12.9422289 29.4139595,17.3554439 C29.2553326,24.2153897 29.2553326,33.3602991 29.2553326,47.9884469 C29.2553326,60.4883433 29.2553326,70.5415088 29.4139595,80.9139963 L29.4139595,80.9139963 Z" id="path-5"></path>
        <filter x="-50%" y="-50%" width="200%" height="200%" filterUnits="objectBoundingBox" id="filter-6">
            <feOffset dx="0" dy="2" in="SourceAlpha" result="shadowOffsetOuter1"></feOffset>
            <feGaussianBlur stdDeviation="2" in="shadowOffsetOuter1" result="shadowBlurOuter1"></feGaussianBlur>
            <feColorMatrix values="0 0 0 0 0   0 0 0 0 0   0 0 0 0 0  0 0 0 0.5 0" type="matrix" in="shadowBlurOuter1"></feColorMatrix>
        </filter>
        <path d="M104.098694,2.72729608 C108.806304,2.72729608 116.697362,3.18395177 126.419765,3.18395177 L133.398509,3.18395177 C134.011195,5.16644409 134.617166,6.38980953 138.560178,11.4163923 C153.284783,30.3195788 181.977787,65.2141399 190.027473,74.8098072 C190.327941,74.9665193 190.632605,74.8098072 190.632605,74.5064934 C190.632605,53.0226125 190.785357,30.4653379 190.181904,18.7321513 C189.868846,14.0080397 188.964085,12.0255474 184.097848,10.8063946 C181.06883,10.0396849 177.427965,9.2847707 173.020823,8.67814321 C172.262939,7.90806332 172.262939,3.49484835 173.020823,2.72729608 C176.821154,2.72729608 184.097848,3.18395177 195.338537,3.18395177 C200.9593,3.18395177 210.975456,2.72729608 213.102232,2.72729608 C214.011189,3.49484835 213.859276,7.75809152 213.102232,8.67814321 C210.218411,9.2847707 207.63338,9.89055565 205.963182,10.4963406 C201.716345,11.8764181 200.803191,14.3113535 200.344936,18.7321513 C199.436818,30.6186798 199.586213,40.9793718 199.131314,76.9431138 C199.131314,84.1114286 199.288263,93.102996 199.436818,98.2888185 C197.764102,97.9762369 188.964085,98.1295788 187.447478,98.4328925 C178.786785,86.2430502 141.286211,38.6994635 130.213381,24.8211747 C130.063987,24.5220736 129.450462,24.6754156 129.450462,24.8211747 C129.300228,40.9793718 129.150833,73.1373689 129.75093,81.9764369 C130.063987,86.8496777 131.730828,89.1363263 136.132935,90.200452 C138.405747,90.9705319 141.750341,91.2738457 145.997178,91.8813157 C146.760937,92.9454414 146.455433,97.063768 145.691674,97.9762369 C141.449873,97.9762369 134.461897,97.516211 125.201946,97.516211 C114.270119,97.516211 107.891471,97.9762369 104.556949,97.9762369 C103.798226,97.516211 103.94762,92.6429702 104.556949,91.8813157 C108.196975,91.4271876 111.386299,90.9705319 113.816899,90.200452 C117.300816,88.9846694 119.132159,86.8496777 119.437663,82.2746954 C120.190511,73.593182 120.499372,51.3468041 120.955949,19.0346225 C120.955949,16.442975 120.190511,12.9422289 116.248339,11.2664205 C113.36284,10.3463688 109.868013,9.2847707 104.098694,8.67814321 C103.18554,7.90806332 103.344167,3.49484835 104.098694,2.72729608" id="path-7"></path>
        <filter x="-50%" y="-50%" width="200%" height="200%" filterUnits="objectBoundingBox" id="filter-8">
            <feOffset dx="0" dy="2" in="SourceAlpha" result="shadowOffsetOuter1"></feOffset>
            <feGaussianBlur stdDeviation="2" in="shadowOffsetOuter1" result="shadowBlurOuter1"></feGaussianBlur>
            <feColorMatrix values="0 0 0 0 0   0 0 0 0 0   0 0 0 0 0  0 0 0 0.5 0" type="matrix" in="shadowBlurOuter1"></feColorMatrix>
        </filter>
        <path d="M283.471307,86.998807 C292.722025,79.8431302 295.915545,67.6507603 295.915545,53.7800543 C295.915545,36.7152861 290.300657,21.4737705 278.609267,13.5480139 C273.295685,10.0396849 267.073985,8.06140527 259.327286,8.06140527 C254.476995,8.06140527 250.218409,9.2847707 246.578383,11.2664205 C235.802664,17.2063146 230.486565,30.6186798 230.486565,46.0093247 C230.486565,62.6216499 236.712461,79.2348177 249.771064,87.3097036 C255.080449,90.508821 260.546782,91.8813157 267.830191,91.8813157 C273.907532,91.8813157 279.67769,90.200452 283.471307,86.998807 Z M226.995095,86.7030761 C217.58491,76.4847731 213.635185,63.9966722 213.635185,49.5142835 C213.635185,37.926856 217.122458,28.0261899 223.954326,19.3421489 C232.308676,8.21811737 248.854553,0.442332542 264.953924,0.442332542 C296.373801,0.442332542 312.312867,23.3029209 312.312867,47.9884469 C312.312867,62.159939 309.1269,71.7648742 302.744895,80.4573406 C292.722025,93.5596517 277.241214,100.262043 262.06255,100.262043 C246.578383,100.262043 235.195854,95.3845894 226.995095,86.7030761 L226.995095,86.7030761 Z" id="path-9"></path>
        <filter x="-50%" y="-50%" width="200%" height="200%" filterUnits="objectBoundingBox" id="filter-10">
            <feOffset dx="0" dy="2" in="SourceAlpha" result="shadowOffsetOuter1"></feOffset>
            <feGaussianBlur stdDeviation="2" in="shadowOffsetOuter1" result="shadowBlurOuter1"></feGaussianBlur>
            <feColorMatrix values="0 0 0 0 0   0 0 0 0 0   0 0 0 0 0  0 0 0 0.5 0" type="matrix" in="shadowBlurOuter1"></feColorMatrix>
        </filter>
        <path d="M349.131094,55.7642317 C348.982538,54.6942082 349.43324,54.0850531 349.593546,53.7800543 C351.110153,54.0850531 353.696023,54.2341824 355.212631,54.2341824 C359.616416,54.2341824 362.648791,53.4792682 365.834758,51.9584868 C372.664108,48.2985009 375.398533,41.5885269 375.398533,33.0569853 C375.398533,18.8821231 367.812978,9.743954 351.568408,9.743954 C350.201196,9.743954 345.640462,9.89055565 344.731505,10.6530527 C344.27325,10.9563664 343.673992,11.8764181 343.512848,12.7846743 C343.215737,16.2896331 343.062146,20.8637728 343.062146,49.2075996 C343.062146,72.9873971 343.215737,79.0747354 343.512848,83.9580867 C343.971103,87.6163874 344.731505,89.1363263 348.822233,90.3613768 C351.408103,90.9705319 354.742625,91.4271876 359.295805,91.8813157 C360.06376,92.7920995 359.75406,97.218795 358.997855,97.9762369 C354.142529,97.9762369 342.30594,97.516211 336.236153,97.516211 C329.097943,97.516211 318.464065,97.9762369 315.130383,97.9762369 C314.373338,97.218795 314.373338,92.7920995 314.980988,92.0329726 C318.464065,91.5771594 321.810338,91.2738457 323.776808,90.6604779 C327.729891,89.5912969 327.879285,86.546364 328.188146,82.1247236 C328.329987,76.6456979 328.486936,61.5541541 328.486936,49.3609416 C328.486936,26.2012522 328.486936,22.5395813 328.329987,17.5129985 C328.02868,12.0255474 326.970328,10.8063946 322.108288,9.89055565 C320.140978,9.43389996 317.715414,8.97387411 314.521893,8.67814321 C313.911725,7.61233242 314.220586,3.49484835 314.980988,2.72729608 C316.948297,2.72729608 326.370232,3.18395177 333.646926,3.18395177 C343.971103,3.18395177 351.110153,3.03060982 360.514462,3.03060982 C365.984153,3.03060982 375.249978,3.95066151 381.46832,8.97387411 C386.781062,13.2455427 391.19324,20.104646 391.19324,30.3195788 C391.19324,44.6402002 382.224526,53.4792682 374.489576,57.292596 C368.717739,60.3383715 362.488486,61.0932857 357.786751,61.0932857 C355.052325,61.0932857 353.237768,60.9483691 351.259548,60.3383715 C350.35059,59.7250037 349.284685,56.8300425 349.131094,55.7642317" id="path-11"></path>
        <filter x="-50%" y="-50%" width="200%" height="200%" filterUnits="objectBoundingBox" id="filter-12">
            <feOffset dx="0" dy="2" in="SourceAlpha" result="shadowOffsetOuter1"></feOffset>
            <feGaussianBlur stdDeviation="2" in="shadowOffsetOuter1" result="shadowBlurOuter1"></feGaussianBlur>
            <feColorMatrix values="0 0 0 0 0   0 0 0 0 0   0 0 0 0 0  0 0 0 0.5 0" type="matrix" in="shadowBlurOuter1"></feColorMatrix>
        </filter>
        <path d="M414.833684,88.6788281 C418.618069,91.7229185 424.087759,93.102996 429.549896,93.102996 C436.077939,93.102996 445.343764,89.4472229 445.343764,77.8581103 C445.343764,68.4098872 439.572766,64.2974584 425.455812,56.3700167 C410.880601,48.2985009 401.766688,41.1285011 401.766688,26.8070371 C401.766688,9.89055565 415.432941,0.442332542 432.594022,0.442332542 C444.1335,0.442332542 450.653149,2.57395413 457.333104,3.33729371 C456.275592,8.36808916 455.366634,18.2754956 454.755627,25.7378562 C454.297371,26.8070371 449.588083,26.8070371 448.834395,25.8945683 C447.918724,17.8120996 446.700066,12.9422289 443.216149,10.3463688 C439.572766,7.75809152 434.721637,6.99559447 430.467247,6.99559447 C420.134676,6.99559447 415.134991,15.0738505 415.134991,21.6237423 C415.134991,30.3195788 418.927769,33.9736669 425.604367,38.23691 C431.826906,42.1943118 440.339883,45.8559828 445.80202,49.050045 C454.297371,54.0850531 460.068369,60.4883433 460.068369,71.4615605 C460.068369,86.0897083 447.619934,100.262043 425.00511,100.262043 C415.28019,100.262043 405.868327,96.9104261 401.926994,95.3845894 C400.559781,93.5596517 397.362064,76.6456979 396.923113,71.0074324 C397.22442,69.6290399 402.385249,68.4098872 403.283296,69.023255 C406.170473,78.1639517 409.363154,84.7222688 414.833684,88.6788281" id="path-13"></path>
        <filter x="-50%" y="-50%" width="200%" height="200%" filterUnits="objectBoundingBox" id="filter-14">
            <feOffset dx="0" dy="2" in="SourceAlpha" result="shadowOffsetOuter1"></feOffset>
            <feGaussianBlur stdDeviation="2" in="shadowOffsetOuter1" result="shadowBlurOuter1"></feGaussianBlur>
            <feColorMatrix values="0 0 0 0 0   0 0 0 0 0   0 0 0 0 0  0 0 0 0.5 0" type="matrix" in="shadowBlurOuter1"></feColorMatrix>
        </filter>
    </defs>
    <g id="Page-1" stroke="none" stroke-width="1" fill="none" fill-rule="evenodd">
        <g id="Desktop-HD" transform="translate(-246.000000, -63.000000)">
            <g id="Knops_logotype_reverse_simplified" transform="translate(250.000000, 65.000000)">
                <g id="Fill-1">
                    <use fill="black" fill-opacity="1" filter="url(#filter-2)" xlink:href="#path-1"></use>
                    <use fill="#FFFFFF" fill-rule="evenodd" xlink:href="#path-1"></use>
                </g>
                <g id="Fill-2">
                    <use fill="black" fill-opacity="1" filter="url(#filter-4)" xlink:href="#path-3"></use>
                    <use fill="#FFFFFF" fill-rule="evenodd" xlink:href="#path-3"></use>
                </g>
                <g id="Fill-4">
                    <use fill="black" fill-opacity="1" filter="url(#filter-6)" xlink:href="#path-5"></use>
                    <use fill="#FFFFFF" fill-rule="evenodd" xlink:href="#path-5"></use>
                </g>
                <g id="Fill-5">
                    <use fill="black" fill-opacity="1" filter="url(#filter-8)" xlink:href="#path-7"></use>
                    <use fill="#FFFFFF" fill-rule="evenodd" xlink:href="#path-7"></use>
                </g>
                <g id="Fill-6">
                    <use fill="black" fill-opacity="1" filter="url(#filter-10)" xlink:href="#path-9"></use>
                    <use fill="#FFFFFF" fill-rule="evenodd" xlink:href="#path-9"></use>
                </g>
                <g id="Fill-7">
                    <use fill="black" fill-opacity="1" filter="url(#filter-12)" xlink:href="#path-11"></use>
                    <use fill="#FFFFFF" fill-rule="evenodd" xlink:href="#path-11"></use>
                </g>
                <g id="Fill-8">
                    <use fill="black" fill-opacity="1" filter="url(#filter-14)" xlink:href="#path-13"></use>
                    <use fill="#FFFFFF" fill-rule="evenodd" xlink:href="#path-13"></use>
                </g>
            </g>
        </g>
    </g>
</svg>